<svg width="54" height="54" viewBox="0 0 54 54" fill="none" xmlns="http://www.w3.org/2000/svg">
<g filter="url(#filter0_b_149_23)">
<path d="M45.5305 27.0494C45.5305 37.0275 37.4421 45.1159 27.464 45.1159C17.4858 45.1159 9.39746 37.0275 9.39746 27.0494C9.39746 17.0731 17.4858 8.98291 27.464 8.98291C37.4421 8.98291 45.5305 17.0731 45.5305 27.0494Z" fill="#DADADA" fill-opacity="0.2"/>
<path d="M27.464 45.2806C37.533 45.2806 45.6952 37.1185 45.6952 27.0494C45.6952 16.9821 37.5331 8.81822 27.464 8.81822C17.3949 8.81822 9.23277 16.9821 9.23277 27.0494C9.23277 37.1185 17.3949 45.2806 27.464 45.2806Z" stroke="url(#paint0_linear_149_23)" stroke-width="0.329376" stroke-linecap="round" stroke-linejoin="round"/>
</g>
<g filter="url(#filter1_b_149_23)">
<path d="M34.4499 26.5757C34.4499 27.0018 34.3158 27.4296 34.0475 27.7722C33.9972 27.8394 33.7625 28.1164 33.5781 28.2967L33.4775 28.395C32.0691 29.8882 28.565 32.1338 26.7878 32.8533C26.7878 32.8697 25.7315 33.2975 25.2285 33.3123H25.1614C24.3902 33.3123 23.6692 32.8878 23.3004 32.1994C23.0992 31.8207 22.9147 30.7225 22.898 30.7078C22.7471 29.7227 22.6465 28.2147 22.6465 26.5593C22.6465 24.8235 22.7471 23.2483 22.9315 22.2813C22.9315 22.2649 23.1159 21.3798 23.2333 21.0847C23.4177 20.6602 23.7531 20.298 24.1722 20.0685C24.5075 19.9062 24.8596 19.8226 25.2285 19.8226C25.6141 19.8407 26.3351 20.0849 26.6201 20.1996C28.4979 20.9208 32.0859 23.2811 33.4607 24.7235C33.6955 24.953 33.9469 25.2332 34.014 25.2972C34.299 25.6578 34.4499 26.1003 34.4499 26.5757Z" fill="#DADADA" fill-opacity="0.4"/>
<path d="M33.9957 27.7316L33.9948 27.7327C33.9466 27.7971 33.7141 28.0716 33.532 28.2496L33.4314 28.3479L33.4314 28.3479L33.4296 28.3498C32.7308 29.0907 31.5078 30.0221 30.2347 30.8593C28.962 31.6963 27.6458 32.4349 26.763 32.7923L26.7219 32.8089V32.8137C26.7196 32.8148 26.7172 32.8158 26.7146 32.817C26.6858 32.8298 26.6434 32.8476 26.5904 32.8687C26.4846 32.9109 26.3379 32.966 26.1756 33.021C25.8484 33.132 25.4679 33.2391 25.2275 33.2464H25.1614C24.4143 33.2464 23.7158 32.8351 23.3585 32.1683C23.2628 31.9882 23.1681 31.6282 23.0943 31.3026C23.0578 31.1415 23.027 30.9916 23.0042 30.8806L23.0042 30.8806L23.0041 30.8803C22.9928 30.8251 22.9833 30.7791 22.9762 30.7465C22.9726 30.7303 22.9695 30.7165 22.9668 30.7063C22.9655 30.7013 22.9641 30.696 22.9625 30.6913C22.9623 30.6907 22.9621 30.6901 22.9618 30.6893C22.8123 29.7085 22.7124 28.208 22.7124 26.5593C22.7124 24.8247 22.813 23.2545 22.9962 22.2936L22.9974 22.2938V22.286L22.9984 22.2803L23.0043 22.2502C23.0095 22.2242 23.0171 22.1874 23.0266 22.1426C23.0456 22.0531 23.0723 21.9321 23.1025 21.8025C23.1634 21.5418 23.2377 21.2525 23.2941 21.11C23.4724 20.7003 23.7966 20.3497 24.2024 20.1271C24.5282 19.9697 24.8695 19.8887 25.2269 19.8885C25.4112 19.8974 25.6805 19.9607 25.9434 20.0381C26.2056 20.1152 26.4551 20.2042 26.5955 20.2607L26.5955 20.2607L26.5965 20.2611C27.5287 20.6191 28.8905 21.3864 30.1927 22.2461C31.4951 23.1058 32.7308 24.0532 33.413 24.7689L33.413 24.769L33.4147 24.7706C33.531 24.8843 33.6518 25.011 33.7523 25.1176C33.7763 25.143 33.7992 25.1675 33.8208 25.1904C33.8855 25.2593 33.9374 25.3146 33.9651 25.3415C34.2388 25.6894 34.3841 26.1161 34.3841 26.5757C34.3841 26.9883 34.2541 27.4015 33.9957 27.7316Z" stroke="url(#paint1_linear_149_23)" stroke-width="0.13175"/>
</g>
<defs>
<filter id="filter0_b_149_23" x="7.48406" y="7.06927" width="39.9596" height="39.9603" filterUnits="userSpaceOnUse" color-interpolation-filters="sRGB">
<feFlood flood-opacity="0" result="BackgroundImageFix"/>
<feGaussianBlur in="BackgroundImageFix" stdDeviation="0.792149"/>
<feComposite in2="SourceAlpha" operator="in" result="effect1_backgroundBlur_149_23"/>
<feBlend mode="normal" in="SourceGraphic" in2="effect1_backgroundBlur_149_23" result="shape"/>
</filter>
<filter id="filter1_b_149_23" x="17.7058" y="14.882" width="21.685" height="23.3709" filterUnits="userSpaceOnUse" color-interpolation-filters="sRGB">
<feFlood flood-opacity="0" result="BackgroundImageFix"/>
<feGaussianBlur in="BackgroundImageFix" stdDeviation="2.47032"/>
<feComposite in2="SourceAlpha" operator="in" result="effect1_backgroundBlur_149_23"/>
<feBlend mode="normal" in="SourceGraphic" in2="effect1_backgroundBlur_149_23" result="shape"/>
</filter>
<linearGradient id="paint0_linear_149_23" x1="15.1492" y1="13.1925" x2="38.1983" y2="41.7392" gradientUnits="userSpaceOnUse">
<stop stop-color="white" stop-opacity="0.25"/>
<stop offset="1" stop-color="white" stop-opacity="0"/>
</linearGradient>
<linearGradient id="paint1_linear_149_23" x1="24.5254" y1="21.3942" x2="33.2996" y2="30.9029" gradientUnits="userSpaceOnUse">
<stop stop-color="white" stop-opacity="0.25"/>
<stop offset="1" stop-color="white" stop-opacity="0"/>
</linearGradient>
</defs>
</svg>
