<svg width="54" height="54" viewBox="0 0 54 54" fill="none" xmlns="http://www.w3.org/2000/svg">
<g filter="url(#filter0_b_149_15)">
<g filter="url(#filter1_b_149_15)">
<path d="M27.2952 25.8408C29.4098 25.8408 31.2409 25.0823 32.7371 23.5859C34.2332 22.0897 34.9917 20.259 34.9917 18.144C34.9917 16.0298 34.2332 14.1989 32.7368 12.7022C31.2404 11.2062 29.4096 10.4478 27.2952 10.4478C25.1803 10.4478 23.3496 11.2062 21.8535 12.7024C20.3573 14.1986 19.5986 16.0296 19.5986 18.144C19.5986 20.259 20.3573 22.0899 21.8537 23.5861C23.3501 25.0821 25.181 25.8408 27.2952 25.8408Z" fill="#DADADA" fill-opacity="0.2"/>
<path d="M32.3056 23.1545L32.3056 23.1545C33.6874 21.7726 34.3815 20.0971 34.3815 18.144C34.3815 16.1918 33.6875 14.516 32.3055 13.1337C30.9234 11.752 29.2477 11.0579 27.2952 11.0579C25.3422 11.0579 23.6667 11.752 22.2849 13.1339C20.9031 14.5157 20.2088 16.1915 20.2088 18.144C20.2088 20.097 20.9031 21.7728 22.2851 23.1546L32.3056 23.1545ZM32.3056 23.1545C30.9238 24.5365 29.2479 25.2306 27.2952 25.2306M32.3056 23.1545L27.2952 25.2306M27.2952 25.2306C25.343 25.2306 23.6672 24.5363 22.2851 23.1547L27.2952 25.2306Z" stroke="url(#paint0_linear_149_15)" stroke-width="1.22032"/>
</g>
<g filter="url(#filter2_b_149_15)">
<path d="M40.7188 35.0283C40.6756 34.4022 40.5883 33.7192 40.4598 32.9979C40.33 32.2712 40.1629 31.5843 39.9629 30.9564C39.7564 30.3075 39.4754 29.6666 39.1281 29.0525C38.7676 28.415 38.3442 27.86 37.8691 27.4032C37.3723 26.9254 36.764 26.5413 36.0606 26.261C35.3596 25.9823 34.5828 25.8411 33.7519 25.8411C33.4255 25.8411 33.1099 25.9757 32.5004 26.3745C32.1253 26.6204 31.6865 26.9048 31.1968 27.2194C30.778 27.4876 30.2107 27.7389 29.51 27.9664C28.8264 28.1888 28.1322 28.3015 27.4471 28.3015C26.762 28.3015 26.0681 28.1888 25.3838 27.9664C24.6838 27.7391 24.1165 27.4878 23.6982 27.2196C23.2131 26.908 22.7741 26.6236 22.3933 26.3743C21.7846 25.9754 21.4687 25.8408 21.1424 25.8408C20.3112 25.8408 19.5346 25.9823 18.8339 26.2613C18.131 26.541 17.5225 26.9252 17.0252 27.4035C16.5503 27.8605 16.1267 28.4153 15.7667 29.0525C15.4196 29.6666 15.1386 30.3072 14.9318 30.9567C14.732 31.5845 14.565 32.2712 14.4352 32.9979C14.3067 33.7182 14.2194 34.4014 14.1762 35.0291C14.1338 35.6439 14.1123 36.2821 14.1123 36.9266C14.1123 38.604 14.6428 39.962 15.6889 40.9635C16.722 41.9518 18.089 42.4531 19.7514 42.4531H35.1443C36.8067 42.4531 38.1732 41.952 39.2066 40.9635C40.2529 39.9627 40.7834 38.6045 40.7834 36.9264C40.7832 36.2789 40.7615 35.6403 40.7188 35.0283Z" fill="#DADADA" fill-opacity="0.2"/>
<path d="M40.1101 35.0708L40.1101 35.0703C40.0686 34.4694 39.9844 33.8084 39.8591 33.1051C39.7335 32.4017 39.5725 31.741 39.3816 31.1416L39.3815 31.1415C39.1881 30.534 38.9243 29.9317 38.597 29.3528L39.1281 29.0525L38.597 29.3528C38.2623 28.761 37.8741 28.2544 37.4462 27.8431L37.4461 27.843C37.0116 27.4251 36.4721 27.0818 35.8348 26.8279C35.2127 26.5805 34.5134 26.4512 33.7519 26.4512C33.6219 26.4512 33.4404 26.4887 32.8349 26.8848C32.8348 26.8849 32.8347 26.885 32.8346 26.8851L32.5004 26.3745C32.1253 26.6204 31.6865 26.9048 31.1968 27.2194L40.1101 35.0708ZM40.1101 35.0708C40.1517 35.6678 40.173 36.2923 40.1733 36.9264L40.1101 35.0708ZM16.2979 29.3526L16.2979 29.3527C15.9707 29.9316 15.7069 30.5337 15.5132 31.1416L16.2979 29.3526ZM16.2979 29.3526C16.6319 28.7615 17.0202 28.2551 17.4481 27.8433L16.2979 29.3526ZM14.7849 35.0709L14.7849 35.0711C14.7435 35.6713 14.7225 36.2955 14.7225 36.9266C14.7225 38.4661 15.2041 39.6546 16.1106 40.5226L14.7849 35.0709ZM14.7849 35.0709C14.8264 34.4686 14.9106 33.8074 15.0359 33.1051L14.7849 35.0709ZM38.7849 40.5226L38.7849 40.5226C39.6914 39.6555 40.1732 38.467 40.1733 36.9266L38.7849 40.5226ZM38.7849 40.5226C37.8834 41.3849 36.6769 41.843 35.1443 41.843H19.7514C18.2189 41.843 17.012 41.3847 16.1108 40.5228L38.7849 40.5226ZM27.4471 28.9117C28.1993 28.9117 28.957 28.7879 29.6984 28.5467L17.4483 27.8431C17.8833 27.4248 18.4229 27.0815 19.0595 26.8282L19.0596 26.8282C19.6815 26.5805 20.3806 26.451 21.1424 26.451C21.2723 26.451 21.4543 26.4885 22.0589 26.8847L22.0591 26.8847C22.4416 27.1353 22.8822 27.4207 23.3684 27.733L23.3688 27.7333C23.8466 28.0396 24.4671 28.3103 25.1952 28.5467C25.9373 28.7878 26.6948 28.9117 27.4471 28.9117ZM15.0359 33.1051C15.1615 32.4017 15.3225 31.7413 15.5132 31.1418L15.0359 33.1051Z" stroke="url(#paint1_linear_149_15)" stroke-width="1.22032"/>
</g>
</g>
<defs>
<filter id="filter0_b_149_15" x="8.24258" y="4.57803" width="38.4104" height="43.7448" filterUnits="userSpaceOnUse" color-interpolation-filters="sRGB">
<feFlood flood-opacity="0" result="BackgroundImageFix"/>
<feGaussianBlur in="BackgroundImageFix" stdDeviation="2.93486"/>
<feComposite in2="SourceAlpha" operator="in" result="effect1_backgroundBlur_149_15"/>
<feBlend mode="normal" in="SourceGraphic" in2="effect1_backgroundBlur_149_15" result="shape"/>
</filter>
<filter id="filter1_b_149_15" x="13.7289" y="4.57803" width="27.132" height="27.1325" filterUnits="userSpaceOnUse" color-interpolation-filters="sRGB">
<feFlood flood-opacity="0" result="BackgroundImageFix"/>
<feGaussianBlur in="BackgroundImageFix" stdDeviation="2.93486"/>
<feComposite in2="SourceAlpha" operator="in" result="effect1_backgroundBlur_149_15"/>
<feBlend mode="normal" in="SourceGraphic" in2="effect1_backgroundBlur_149_15" result="shape"/>
</filter>
<filter id="filter2_b_149_15" x="8.24258" y="19.9711" width="38.4104" height="28.3518" filterUnits="userSpaceOnUse" color-interpolation-filters="sRGB">
<feFlood flood-opacity="0" result="BackgroundImageFix"/>
<feGaussianBlur in="BackgroundImageFix" stdDeviation="2.93486"/>
<feComposite in2="SourceAlpha" operator="in" result="effect1_backgroundBlur_149_15"/>
<feBlend mode="normal" in="SourceGraphic" in2="effect1_backgroundBlur_149_15" result="shape"/>
</filter>
<linearGradient id="paint0_linear_149_15" x1="22.049" y1="12.2411" x2="31.8681" y2="24.4023" gradientUnits="userSpaceOnUse">
<stop stop-color="white" stop-opacity="0.25"/>
<stop offset="1" stop-color="white" stop-opacity="0"/>
</linearGradient>
<linearGradient id="paint1_linear_149_15" x1="18.3579" y1="27.7762" x2="27.0602" y2="45.0803" gradientUnits="userSpaceOnUse">
<stop stop-color="white" stop-opacity="0.25"/>
<stop offset="1" stop-color="white" stop-opacity="0"/>
</linearGradient>
</defs>
</svg>
